<svg xmlns="http://www.w3.org/2000/svg" version="1.1" xmlns:xlink="http://www.w3.org/1999/xlink" xmlns:svgjs="http://svgjs.dev/svgjs" width="1000" height="368" viewBox="0 0 1000 368"><g transform="matrix(1,0,0,1,-0.6060546235941047,0.2924674133025462)"><svg viewBox="0 0 396 146" data-background-color="#fafafa" preserveAspectRatio="xMidYMid meet" height="368" width="1000" xmlns="http://www.w3.org/2000/svg" xmlns:xlink="http://www.w3.org/1999/xlink"><g id="tight-bounds" transform="matrix(1,0,0,1,0.23999763094326454,-0.11603326723415819)"><svg viewBox="0 0 395.52 146.23206653446832" height="146.23206653446832" width="395.52"><g><svg viewBox="0 0 671.7870314934858 248.37380129032255" height="146.23206653446832" width="395.52"><g transform="matrix(1,0,0,1,276.2670314934857,56.76015778801842)"><svg viewBox="0 0 395.52 134.8534857142857" height="134.8534857142857" width="395.52"><g id="textblocktransform"><svg viewBox="0 0 395.52 134.8534857142857" height="134.8534857142857" width="395.52" id="textblock"><g><svg viewBox="0 0 395.52 134.8534857142857" height="134.8534857142857" width="395.52"><g transform="matrix(1,0,0,1,0,0)"><svg width="395.52" viewBox="2.75 -35.5 104.98999786376953 35.79999923706055" height="134.8534857142857" data-palette-color="#130912"><path d="M26.3-17.6L26.3-17.6Q26.3-4.15 19.15-0.7L19.15-0.7Q17 0.3 14.2 0.3L14.2 0.3Q2.75 0.3 2.75-17.6L2.75-17.6Q2.75-24.85 5.2-29.85L5.2-29.85Q6.5-32.5 8.95-34 11.4-35.5 14.8-35.5L14.8-35.5Q26.3-35.5 26.3-17.6ZM22.55-17.5L22.55-17.5 22.55-17.7Q22.55-32.25 14.55-32.25L14.55-32.25Q11.6-32.25 9.75-30.13 7.9-28 7.2-24.88 6.5-21.75 6.5-17.6L6.5-17.6Q6.5-2.95 14.53-2.95 22.55-2.95 22.55-17.5ZM55.3-17.6L55.3-17.6Q55.3-4.15 48.15-0.7L48.15-0.7Q46 0.3 43.2 0.3L43.2 0.3Q31.75 0.3 31.75-17.6L31.75-17.6Q31.75-24.85 34.2-29.85L34.2-29.85Q35.5-32.5 37.95-34 40.4-35.5 43.8-35.5L43.8-35.5Q55.3-35.5 55.3-17.6ZM51.55-17.5L51.55-17.5 51.55-17.7Q51.55-32.25 43.55-32.25L43.55-32.25Q40.6-32.25 38.75-30.13 36.9-28 36.2-24.88 35.5-21.75 35.5-17.6L35.5-17.6Q35.5-2.95 43.52-2.95 51.55-2.95 51.55-17.5ZM87.19-35L98.79 0 94.59 0 91.09-11.05 78.54-11.05 75.09 0 71.14 0 82.64-35 87.19-35ZM79.49-14.3L90.24-14.3 84.89-31.2 79.49-14.3ZM107.74-35L107.74 0 103.99 0 103.99-35 107.74-35Z" opacity="1" transform="matrix(1,0,0,1,0,0)" fill="#130912" class="undefined-text-0" data-fill-palette-color="primary" id="text-0"></path></svg></g></svg></g></svg></g></svg></g><g><svg viewBox="0 0 244.43135999999998 248.37380129032255" height="248.37380129032255" width="244.43135999999998"><g><svg xmlns="http://www.w3.org/2000/svg" xmlns:xlink="http://www.w3.org/1999/xlink" version="1.1" x="0" y="0" viewBox="4 3.5 62 63" style="enable-background:new 0 0 70 70;" xml:space="preserve" height="248.37380129032255" width="244.43135999999998" class="icon-icon-0" data-fill-palette-color="accent" id="icon-0"><path d="M10.041 44.479c-0.205 0.681-0.317 1.397-0.317 2.135 0 3.164 1.989 5.888 4.836 7.115v0.725c0 4.614 3.938 8.368 8.778 8.368 0.588 0 1.161-0.073 1.725-0.18C26.161 64.938 28.56 66.5 31.417 66.5c2.43 0 4.431-1.154 5.565-3H41c0.552 0 1-0.448 1-1v-4.533c2.845-0.599 5.601-1.739 8.057-3.336l3.206 3.206c0.188 0.188 0.442 0.293 0.707 0.293s0.52-0.105 0.707-0.293l5.66-5.66c0.391-0.391 0.391-1.023 0-1.414l-3.207-3.206c1.597-2.456 2.738-5.211 3.337-8.057H65c0.552 0 1-0.448 1-1v-8c0-0.552-0.448-1-1-1h-4.533c-0.599-2.845-1.74-5.601-3.337-8.056l3.207-3.207c0.391-0.391 0.391-1.023 0-1.414l-5.66-5.66c-0.375-0.375-1.039-0.375-1.414 0l-3.206 3.207C47.602 12.773 44.846 11.632 42 11.034V6.5c0-0.552-0.448-1-1-1h-4.882c-1.183-1.248-2.841-2-4.733-2-2.49 0-4.672 1.317-5.905 3.287h-1.848c-4.835 0-8.768 3.762-8.768 8.385v0.286c-4.188 0.366-7.486 3.887-7.486 8.168 0 1.802 0.594 3.464 1.586 4.818C6.055 29.92 4 33.073 4 36.32 4 40.009 6.529 43.326 10.041 44.479zM40 7.5v4.36c0 0.487 0.351 0.903 0.831 0.986 3.124 0.538 6.158 1.794 8.774 3.633 0.397 0.279 0.938 0.231 1.282-0.112l3.083-3.083 4.246 4.246-3.083 3.083c-0.344 0.344-0.391 0.884-0.112 1.282 1.839 2.618 3.096 5.652 3.634 8.774C58.737 31.149 59.153 31.5 59.64 31.5H64v6h-4.36c-0.487 0-0.903 0.351-0.985 0.831-0.538 3.123-1.794 6.157-3.634 8.774-0.279 0.397-0.232 0.938 0.112 1.282l3.083 3.083-4.246 4.246-3.083-3.083c-0.343-0.342-0.885-0.391-1.282-0.111-2.618 1.839-5.652 3.095-8.774 3.633C40.351 56.237 40 56.653 40 57.14V61.5h-2.207c0.128-0.55 0.202-1.128 0.202-1.737V49.45C45.802 48.933 52 42.435 52 34.5s-6.198-14.433-14.005-14.95v-9.124c0-1.06-0.21-2.045-0.582-2.926H40zM37.995 47.45V21.55C44.699 22.062 50 27.667 50 34.5S44.699 46.938 37.995 47.45zM10.438 29.994c1.409 1.135 3.197 1.818 5.145 1.818 0.552 0 1-0.448 1-1s-0.448-1-1-1c-3.421 0-6.205-2.775-6.205-6.186 0-3.421 2.784-6.205 6.205-6.205 1.654 0 3.207 0.644 4.374 1.813 0.391 0.391 1.023 0.391 1.414 0.002 0.391-0.391 0.392-1.023 0.002-1.415-1.239-1.241-2.808-2.025-4.509-2.291v-0.358c0-3.521 3.036-6.385 6.768-6.385h0.999c-0.134 0.539-0.213 1.1-0.213 1.68 0 0.315 0.023 0.618 0.058 0.921 0.064 0.548 0.563 0.951 1.108 0.878 0.549-0.063 0.942-0.56 0.878-1.108-0.026-0.227-0.044-0.455-0.044-0.691C26.418 7.729 28.646 5.5 31.385 5.5c2.671 0 4.61 2.072 4.61 4.926v49.337c0 2.789-1.883 4.737-4.578 4.737-2.803 0-4.999-2.063-4.999-4.696 0-0.699 0.153-1.407 0.441-2.047 0.228-0.503 0.004-1.096-0.499-1.322-0.503-0.227-1.095-0.003-1.323 0.499-0.411 0.909-0.619 1.875-0.619 2.87 0 0.314 0.029 0.619 0.071 0.92-0.379 0.06-0.764 0.097-1.151 0.098-3.738 0-6.779-2.857-6.778-6.368v-0.146c0.446 0.072 0.902 0.118 1.369 0.118 1.256 0 2.461-0.264 3.583-0.786 0.501-0.232 0.718-0.827 0.486-1.328-0.233-0.501-0.828-0.719-1.329-0.485-0.856 0.397-1.778 0.599-2.74 0.599-3.421 0-6.205-2.607-6.205-5.812 0-3.02 2.506-5.572 5.705-5.812 0.551-0.041 0.964-0.521 0.922-1.072-0.041-0.551-0.52-0.965-1.072-0.922-2.732 0.205-5.077 1.708-6.401 3.835C8.378 41.887 6 39.474 6 36.32 6 33.601 7.881 30.983 10.438 29.994z" fill="#e77917" data-fill-palette-color="accent"></path><path d="M19.487 25.947c0.479 0.082 1.034 0.131 1.635 0.131 3.172 0 7.606-1.39 8.693-6.828 0.108-0.542-0.243-1.068-0.784-1.177-0.544-0.107-1.069 0.243-1.177 0.784-1.234 6.167-7.753 5.165-8.033 5.118-0.542-0.091-1.059 0.275-1.152 0.818C18.577 25.337 18.943 25.854 19.487 25.947z" fill="#e77917" data-fill-palette-color="accent"></path><path d="M26.914 44.341c-2.156-1.24-4.37-0.65-4.465-0.624-0.53 0.146-0.839 0.691-0.696 1.222 0.143 0.531 0.692 0.847 1.222 0.707 0.404-0.106 4.013-0.896 5.318 4.05 0.118 0.448 0.523 0.745 0.967 0.745 0.084 0 0.17-0.011 0.256-0.033 0.534-0.141 0.853-0.688 0.711-1.222C29.62 46.886 28.505 45.256 26.914 44.341z" fill="#e77917" data-fill-palette-color="accent"></path></svg></g></svg></g></svg></g><defs></defs></svg><rect width="395.52" height="146.23206653446832" fill="none" stroke="none" visibility="hidden"></rect></g></svg></g></svg>